/* XPM */
static char *keyboard[] = {
/* width height num_colors chars_per_pixel */
"    32    32        6            1",
/* colors */
". c #000000",
"# c #808000",
"a c #808080",
"b c None",
"c c #ffff00",
"d c #ffffff",
/* pixels */
"bbbbbbbbbbbbbbbbbbbbabbbbbbbbbbb",
"bbbbbbbbbbbbbbbbbbbbabbbbbbbbbbb",
"bbbbbbbbbbbbbbbbbbbac.bbbbbbbbbb",
"bbbbbbbbbbbbbbbbbbac#.bbbbbbbbbb",
"bbbbbbbbbbbbbbbbbbb...bbbbbbbbbb",
"bbbbbbbbbbbbbbbbbbbbbba..bbbbbbb",
"bbbbbbbbbbbbbbbbbbbbbbbbb.bbbbbb",
"bbbbbbbbbbbbbbbbbbbbbbbbbabbbbbb",
"bbbbba.ba.ba.ba.ba.ba.bbbabbbbbb",
"bbbbba.ba.ba.ba.ba.ba.bbbabbbbbb",
"bbba.b..b..b..b..b..b...abbbbbbb",
"bbabbbbbbbbbbbbbbbbbbbbbbbbbbbbb",
"bbabbbbbbbbbbbbbbbbbbbbbbbbbbbbb",
"baaaaaaaaaaaaaaaaaaaaaaaaaaaaaab",
"addddddddddddddddddddddddddddda.",
"adaaaaaaaaaaaaaaaaaaaaaaaaaaaaa.",
"adadb.db.db.db.db.db.db.db.db.a.",
"adadb.db.db.db.db.db.db.db.db.a.",
"adabb.bb.bb.bb.bb.bb.bb.bb.bb.a.",
"ada...........................a.",
"adadddb.db.db.db.db.db.db.dbb.a.",
"adabbbb.bb.bb.bb.bb.bb.bb.bbb.a.",
"ada...........................a.",
"adadd.db.db.db.db.db.db.ddddb.a.",
"adabb.bb.bb.bb.bb.bb.bb.bbbbb.a.",
"adabb.bb.bb.bb.bb.bb.bb.bbbbb.a.",
"ada...........................a.",
"adadddb.db.ddddddddddb.db.ddb.a.",
"adabbbb.bb.bbbbbbbbbbb.bb.bbb.a.",
"ada...........................a.",
"aaaaaaaaaaaaaaaaaaaaaaaaaaaaaaa.",
"b..............................b"
};
