/* XPM */
static char *touch[] = {
/* width height num_colors chars_per_pixel */
"    32    32      199            2",
/* colors */
".. c None",
".# c #000000",
".a c #100d08",
".b c #818181",
".c c #ffff9e",
".d c #fdfda2",
".e c #f0f0f0",
".f c #f9f9a6",
".g c #f6f6ac",
".h c #f2f2b8",
".i c #f5f499",
".j c #e8ece8",
".k c #eeeebc",
".l c #e1e8e8",
".m c #e4e4d4",
".n c #e0e0e3",
".o c #e1e1cd",
".p c #dddce0",
".q c #ddddd9",
".r c #d9d9e9",
".s c #ead7bd",
".t c #d8d7dc",
".u c #d3d3f7",
".v c #e6d2b8",
".w c #d5d4d9",
".x c #cecefe",
".y c #e7d0b3",
".z c #d4d1d7",
".A c #d0ced4",
".B c #e5ccac",
".C c #cbcbf8",
".D c #cecece",
".E c #e4c9a8",
".F c #cac8cf",
".G c #c4c3ef",
".H c #c9c6d9",
".I c #dcc5a8",
".J c #dfc39e",
".K c #c7c5cd",
".L c #dcc09c",
".M c #c3bfe6",
".N c #cfc0ab",
".O c #bfbde6",
".P c #ddbc92",
".Q c #c1bec7",
".R c #dcbb8f",
".S c #d9bb97",
".T c #d7b892",
".U c #bebcc5",
".V c #bcbcbf",
".W c #bbb8d6",
".X c #bcb5e1",
".Y c #bcb9c3",
".Z c #d7b385",
".0 c #d1b491",
".1 c #d0b48d",
".2 c #d3b38b",
".3 c #b5b3d8",
".4 c #b8afda",
".5 c #b6b3be",
".6 c #c5b39b",
".7 c #d6ad84",
".8 c #b2aed0",
".9 c #cead84",
"#. c #b2afbb",
"## c #c5ad94",
"#a c #c1af98",
"#b c #c5ac8c",
"#c c #aeaacd",
"#d c #cba97e",
"#e c #aeabb7",
"#f c #aca8ca",
"#g c #aba8b5",
"#h c #aba4c8",
"#i c #a8a5b2",
"#j c #aaa0c7",
"#k c #b7a48d",
"#l c #c3a177",
"#m c #a6a7a5",
"#n c #a8a5aa",
"#o c #bba381",
"#p c #b6a585",
"#q c #a6a2c2",
"#r c #aaa199",
"#s c #a49cbc",
"#t c #bb9d78",
"#u c #a29eac",
"#v c #a39bb7",
"#w c #ba9b72",
"#x c #b99b73",
"#y c #9f9caa",
"#z c #b09a7a",
"#A c #9c99a7",
"#B c #b39672",
"#C c #ad9875",
"#D c #a192b8",
"#E c #999999",
"#F c #9995a5",
"#G c #9593aa",
"#H c #b2916c",
"#I c #959595",
"#J c #9793a3",
"#K c #a59278",
"#L c #ae8f6a",
"#M c #999487",
"#N c #9490a0",
"#O c #918d9e",
"#P c #8e8a9b",
"#Q c #a18b5c",
"#R c #8c8a8d",
"#S c #91849f",
"#T c #8b8699",
"#U c #898597",
"#V c #a1825d",
"#W c #9f825d",
"#X c #928471",
"#Y c #868294",
"#Z c #8d8376",
"#0 c #978165",
"#1 c #897e93",
"#2 c #847f93",
"#3 c #867e8f",
"#4 c #7e7a8d",
"#5 c #897c64",
"#6 c #937956",
"#7 c #817a81",
"#8 c #827b6a",
"#9 c #7a758a",
"a. c #7d7580",
"a# c #8c7353",
"aa c #777679",
"ab c #777288",
"ac c #767086",
"ad c #757075",
"ae c #7a6d7b",
"af c #7d6e59",
"ag c #756c75",
"ah c #716b82",
"ai c #6f6e71",
"aj c #856a4b",
"ak c #6f6981",
"al c #706e63",
"am c #70666a",
"an c #6c6b56",
"ao c #73685b",
"ap c #7d6648",
"aq c #69686b",
"ar c #73654c",
"as c #68627b",
"at c #69635a",
"au c #65625e",
"av c #636262",
"aw c #715f44",
"ax c #625b74",
"ay c #735c41",
"az c #615e56",
"aA c #5f5e60",
"aB c #5c5a5d",
"aC c #635742",
"aD c #655441",
"aE c #62513c",
"aF c #515151",
"aG c #4f4c57",
"aH c #504a64",
"aI c #564d2e",
"aJ c #4f4853",
"aK c #4c465e",
"aL c #414f48",
"aM c #4a494b",
"aN c #4f444f",
"aO c #49435b",
"aP c #554531",
"aQ c #48444f",
"aR c #4a4538",
"aS c #444053",
"aT c #443c57",
"aU c #3f4043",
"aV c #4b3d2a",
"aW c #403953",
"aX c #443d31",
"aY c #3e394b",
"aZ c #39394c",
"a0 c #433624",
"a1 c #39353c",
"a2 c #393144",
"a3 c #35313e",
"a4 c #352d3c",
"a5 c #312d35",
"a6 c #2e2b34",
"a7 c #2b2931",
"a8 c #2a292a",
"a9 c #27252a",
"b. c #242327",
"b# c #201f21",
"ba c #231b11",
"bb c #1b1b1c",
"bc c #080708",
"bd c #050403",
"be c #000000",
/* pixels */
"#w#QaI.b...#....................................................",
".E.J.J#C#X#Z#r.z.U.F.K.Q.Y.5#.#e#i#u#y#F#N#P#U#2#4#9acahakasax..",
".L.y.s.B.0.N.6#kao.A.t.t.w.A.A.F.K.K.Q.U.Y.5.5#.#e#g#i#u#u#yaH..",
".7.R.E.s.s.E###a#zan.V.t.z.A.A.F.K.K.Q.U.Y.5.5#.#e#g#i#u#u#yaK..",
".Z.J.J.y.B.v.B.I#KataUbebebebebebebebebebebebebebebebeai#A#AaK..",
"#w.L.P.J.J.Z#l.0.T#paladadadad#3.8adadadadadadadadadad.D#A#FaO..",
"#V#d.J.P.S.y.1#w#l.9#bafav#7ad.8.x#1adaeaeadadadadadad.D#F#FaO..",
"a##d.Z.E#d#B.T#oaP#6#w.2#Kau#G.C.r.4#v.X#jadadadadadad.D#J#JaS..",
"ap#V#l#t.T.9#B#0aXazar#Q#d#o#8.V.d.x.x.x#sadadadadadad.D#N#NaS..",
"a0#6#l#b#x#da0awaEbdadadaj#H.9aE.i.h.f.m#Padadadadadad.D#N#OaY..",
".aaDa##LaCaraRaVaDa8a.#h#qaf#W#L#5.c.c.u.O#Oadadadadad.D#O#PaY..",
"..aLawaybaaVaEb#aVam.G.x.p.ia5aw#x.c.c.h.u.x#Padadadad.D#P#PaY..",
"...e#m#MbbaUaBagadadae#c.o.d.c.c.c.c.c.g.H#Sadadadadad.D#T#Ta2..",
"...e.n.nbeadadadadadadad.3.m.c.c.c.c.c.u#Tadadadadadad.D#U#Ua2..",
"...e.n.pbeadadadadadadae.G.k.f.f.c.g.d.q#sadadadadadad.D#Y#Ya3..",
"...e.n.pbeadadadadadad#3.M.W#D.q.c.W#v.M#fadadadadadad.D#Y#2a4..",
"...e.p.pbeadadadadadadagaeadad.8.p#1adaea.adadadadadad.D#2#2a5..",
"...e.p.tbeadadadadadadadadadad#3#fadadadadadadadadadad.D#4#4a6..",
"...e.t.tbeadadadadadadadadadadadadadadadadadadadadadad.D#4#4a7..",
"...e.t.wbeadadadadadadadadadadadadadadadadadadadadadad.D#9#9a7..",
"...e.t.wbeadadadadadadadadadadadadadadadadadadadadadad.D#9#9a9..",
"...j.w.zai.D.D.D.D.D.D.D.D.D.D.D.D.D.D.D.D.D.D.D.D.D.D.eabacb...",
"...l.z.z.A.F.K.K.Q.Y.Y.5#.#e#g#i#u#y#A#F#N#O#P#U#Y#2#4#9acacb...",
"...l.z.z.A.F.K.K.Q.Y.Y.5#.#e#g#i#u#y#A#F#N#O#P#U#Y#2#4#9acacb#..",
"..#IaGaGaJaJaNaQaNaNaQaQaTaTaSaYaWaWaYaYaZa2a2a1a2a2a5a5a4a6bb..",
"..................bebba1aFai#R#n.V#A#7aAaUb#be..................",
"..................bcb.aUaBaa#I#e.K#n#RaqaMa8bc..................",
"...........e.l.n.t.A.F.Q.Y.5#e#i#y#F#O#T#2#4acakasaxax..........",
"..........#m.D.D.D.D.D.D.D.D.D.D.D.D.D.D.D.D.D.D.D.D#m..........",
"..........aF#E#E#E#E#E#E#E#E#E#E#E#E#E#E#E#E#E#E#E#EaF..........",
"..........bebebebebebebebebebebebebebebebebebebebebebe..........",
"................................................................"
};

