/* XPM */
static char * kbdlayout_xpm[] = {
"32 32 503 2",
"  	c None",
". 	c #69290A",
"+ 	c #A26243",
"@ 	c #A9A9A9",
"# 	c #0C5A96",
"$ 	c #0B558F",
"% 	c #0A4E81",
"& 	c #08426E",
"* 	c #07395F",
"= 	c #576C6C",
"- 	c #8C2808",
"; 	c #94390C",
"> 	c #9E5E3E",
", 	c #3F7198",
"' 	c #0B538A",
") 	c #0A4A7C",
"! 	c #083D66",
"~ 	c #345A73",
"{ 	c #8F5434",
"] 	c #9C4E3A",
"^ 	c #363535",
"/ 	c #7590A6",
"( 	c #F0814B",
"_ 	c #F2A27A",
": 	c #C2D8EA",
"< 	c #2989D2",
"[ 	c #0E6FB9",
"} 	c #0C5C9A",
"| 	c #0B5690",
"1 	c #8BA8B1",
"2 	c #D75211",
"3 	c #E25612",
"4 	c #ED8C5C",
"5 	c #5DA6DE",
"6 	c #1078C8",
"7 	c #0E6AB0",
"8 	c #326F96",
"9 	c #CC875C",
"0 	c #DE713F",
"a 	c #D9E2EA",
"b 	c #38444D",
"c 	c #0C5D9D",
"d 	c #93B9DB",
"e 	c #EF7E46",
"f 	c #EBA989",
"g 	c #B6CBD7",
"h 	c #0E68AD",
"i 	c #0B5792",
"j 	c #0C5B98",
"k 	c #94B1BE",
"l 	c #DD5511",
"m 	c #E65812",
"n 	c #ED8B5B",
"o 	c #5CA4DB",
"p 	c #0F72BF",
"q 	c #0D62A2",
"r 	c #2F6C90",
"s 	c #A37F5E",
"t 	c #D36F3E",
"u 	c #EAD8CE",
"v 	c #439BDF",
"w 	c #062B48",
"x 	c #128AE7",
"y 	c #77B6E8",
"z 	c #E17540",
"A 	c #D48C64",
"B 	c #96AEA7",
"C 	c #1C608F",
"D 	c #0D62A4",
"E 	c #9CB9CC",
"F 	c #E35612",
"G 	c #E95912",
"H 	c #E98859",
"I 	c #5A9ED3",
"J 	c #0E6AB1",
"K 	c #2E7098",
"L 	c #AB784B",
"M 	c #C36838",
"N 	c #CED7D9",
"O 	c #4299DC",
"P 	c #1180D7",
"Q 	c #052A46",
"R 	c #1289E4",
"S 	c #1183DA",
"T 	c #84A4BE",
"U 	c #C76A3A",
"V 	c #AD875E",
"W 	c #8AA79B",
"X 	c #A1C0D6",
"Y 	c #E85912",
"Z 	c #E68657",
"` 	c #5899CC",
" .	c #317AA7",
"..	c #957A5C",
"+.	c #B26034",
"@.	c #D5C8B6",
"#.	c #4095D6",
"$.	c #1182DA",
"%.	c #117ED3",
"&.	c #052945",
"*.	c #1286DF",
"=.	c #107FD4",
"-.	c #0D67C2",
";.	c #5B8FA9",
">.	c #A55B2C",
",.	c #B67E55",
"'.	c #ADC4CD",
").	c #BCD1E0",
"!.	c #E85812",
"~.	c #E75812",
"{.	c #DF8353",
"].	c #7C99C3",
"^.	c #AF7C54",
"/.	c #A65B2E",
"(.	c #B1C2B8",
"_.	c #3B8ECA",
":.	c #1181D7",
"<.	c #1181D8",
"[.	c #107BCD",
"}.	c #052842",
"|.	c #738DA1",
"1.	c #A7CBE7",
"2.	c #A1C2DA",
"3.	c #8DA5C0",
"4.	c #7CA1A1",
"5.	c #ADB18E",
"6.	c #C3A181",
"7.	c #E4E1DA",
"8.	c #F0ECEA",
"9.	c #E35712",
"0.	c #DA804F",
"a.	c #CBCFBB",
"b.	c #A8936B",
"c.	c #B2B393",
"d.	c #BECAC6",
"e.	c #A1C2D9",
"f.	c #A8CBE7",
"g.	c #A5C8E2",
"h.	c #9BBCD1",
"i.	c #313C42",
"j.	c #000000",
"k.	c #692007",
"l.	c #973A0C",
"m.	c #90370B",
"n.	c #7D300A",
"o.	c #6E2A09",
"p.	c #752D09",
"q.	c #85330A",
"r.	c #9A3B0C",
"s.	c #96390C",
"t.	c #8A350B",
"u.	c #782E09",
"v.	c #A43F0D",
"w.	c #B6450E",
"x.	c #D35111",
"y.	c #E15612",
"z.	c #E55712",
"A.	c #DE5511",
"B.	c #CC4E10",
"C.	c #401805",
"D.	c #083E68",
"E.	c #0C5D9C",
"F.	c #717E67",
"G.	c #7A836F",
"H.	c #919189",
"I.	c #9D9A97",
"J.	c #A4A1A0",
"K.	c #997A6A",
"L.	c #89350B",
"M.	c #732C09",
"N.	c #6C2909",
"O.	c #7C2E0A",
"P.	c #8D350B",
"Q.	c #331404",
"R.	c #A9400D",
"S.	c #C34A0F",
"T.	c #DB5411",
"U.	c #D95311",
"V.	c #C14A0F",
"W.	c #3C1705",
"X.	c #128CEB",
"Y.	c #128AE6",
"Z.	c #1183DB",
"`.	c #107DD0",
" +	c #ACBE9C",
".+	c #C4CBB5",
"++	c #E3E0D8",
"@+	c #EFEBE8",
"#+	c #F6F3F2",
"$+	c #F1EDEB",
"%+	c #E0B39A",
"&+	c #C24A0F",
"*+	c #A63F0D",
"=+	c #A9410D",
"-+	c #C74B0F",
";+	c #DA5311",
">+	c #4D1D06",
",+	c #B97146",
"'+	c #D27E51",
")+	c #E68859",
"!+	c #E9895B",
"~+	c #E38556",
"{+	c #D47D4E",
"]+	c #B67041",
"^+	c #392314",
"/+	c #128BE9",
"(+	c #1079CA",
"_+	c #B2C2A3",
":+	c #D0D3C2",
"<+	c #E9E5E1",
"[+	c #F4F0EE",
"}+	c #F6F3F1",
"|+	c #EEEAE7",
"1+	c #D9AE94",
"2+	c #B7460E",
"3+	c #A23E0D",
"4+	c #B0430E",
"5+	c #D04D10",
"6+	c #DE5512",
"7+	c #4C1D06",
"8+	c #CAB193",
"9+	c #DB8151",
"0+	c #BED5E7",
"a+	c #5CA5DE",
"b+	c #589DD1",
"c+	c #518FBA",
"d+	c #447B99",
"e+	c #152830",
"f+	c #1286E0",
"g+	c #0F72BD",
"h+	c #0B558D",
"i+	c #C2CAB3",
"j+	c #DDDCD0",
"k+	c #EFEBE7",
"l+	c #F2EEEB",
"m+	c #E8E4DE",
"n+	c #CBA58A",
"o+	c #A8400D",
"p+	c #C1490F",
"q+	c #E45712",
"r+	c #4A1C06",
"s+	c #ADC2C9",
"t+	c #E5A585",
"u+	c #E97942",
"v+	c #8AAAC6",
"w+	c #0F75C2",
"x+	c #0D64A7",
"y+	c #0B558E",
"z+	c #041C30",
"A+	c #1079CB",
"B+	c #0E6BB3",
"C+	c #0C5994",
"D+	c #0B5791",
"E+	c #CED1C0",
"F+	c #E6E2DB",
"G+	c #F3F0ED",
"H+	c #F6F2F1",
"I+	c #E1DFD5",
"J+	c #BD9F80",
"K+	c #B1430E",
"L+	c #CC4D10",
"M+	c #DF5511",
"N+	c #E05612",
"O+	c #2782C8",
"P+	c #BED4E4",
"Q+	c #EA9A73",
"R+	c #E07540",
"S+	c #689BBE",
"T+	c #0B568F",
"U+	c #041E32",
"V+	c #073960",
"W+	c #083D67",
"X+	c #A3A19F",
"Y+	c #9C9996",
"Z+	c #909087",
"`+	c #786650",
" @	c #983A0C",
".@	c #93380C",
"+@	c #301204",
"@@	c #0B5289",
"#@	c #9F9C9A",
"$@	c #92573A",
"%@	c #804D2C",
"&@	c #2E5164",
"*@	c #083C64",
"=@	c #031624",
"-@	c #707070",
";@	c #A6A6A6",
">@	c #A5A5A5",
",@	c #A3A3A4",
"'@	c #A3A3A3",
")@	c #A2A3A2",
"!@	c #A2A2A2",
"~@	c #A1A2A1",
"{@	c #A1A1A1",
"]@	c #A1A1A0",
"^@	c #8F8F8F",
"/@	c #2A2A2A",
"(@	c #9E9E9E",
"_@	c #EEEFEF",
":@	c #F2F2F2",
"<@	c #F1F1F1",
"[@	c #EAEAEA",
"}@	c #F2F2F1",
"|@	c #ECECEC",
"1@	c #EDEDED",
"2@	c #F1F0F1",
"3@	c #EEEEEF",
"4@	c #E9E8E9",
"5@	c #EFEFEF",
"6@	c #EDEEED",
"7@	c #E6E7E7",
"8@	c #ECEDED",
"9@	c #E7E7E7",
"0@	c #E7E8E7",
"a@	c #EBEBEB",
"b@	c #E8E8E8",
"c@	c #E2E2E2",
"d@	c #E9E9EA",
"e@	c #E8E7E7",
"f@	c #E0E0E0",
"g@	c #D2D2D2",
"h@	c #D0D0D1",
"i@	c #2F2F2F",
"j@	c #9A9B9A",
"k@	c #DEDDDE",
"l@	c #F5F5F5",
"m@	c #EAEBEA",
"n@	c #E5E5E6",
"o@	c #E9EAE9",
"p@	c #ECECED",
"q@	c #E2E3E2",
"r@	c #DDDDDE",
"s@	c #E5E5E5",
"t@	c #EEEFEE",
"u@	c #DDDDDD",
"v@	c #BCBCBC",
"w@	c #B9B9B9",
"x@	c #969696",
"y@	c #E4E5E4",
"z@	c #EAE9EA",
"A@	c #F3F3F3",
"B@	c #C0C0C0",
"C@	c #E6E6E6",
"D@	c #F0F0F0",
"E@	c #DBDBDB",
"F@	c #CECECE",
"G@	c #EFEEEF",
"H@	c #F4F5F4",
"I@	c #BABABA",
"J@	c #C8C7C8",
"K@	c #C1C1C2",
"L@	c #939393",
"M@	c #292929",
"N@	c #9A9A9A",
"O@	c #DADADB",
"P@	c #BEBEBE",
"Q@	c #B0B0B0",
"R@	c #8B8B8B",
"S@	c #C1C1C1",
"T@	c #B5B5B5",
"U@	c #ACABAC",
"V@	c #B9B8B9",
"W@	c #ADADAD",
"X@	c #929292",
"Y@	c #8A8A8A",
"Z@	c #AAAAAA",
"`@	c #919291",
" #	c #898989",
".#	c #C4C3C4",
"+#	c #C7C7C7",
"@#	c #909091",
"##	c #282928",
"$#	c #99999A",
"%#	c #E4E4E4",
"&#	c #D9D9D9",
"*#	c #E1E1E1",
"=#	c #DEDEDE",
"-#	c #DADBDB",
";#	c #D4D3D4",
">#	c #D8D8D8",
",#	c #D1D1D0",
"'#	c #D5D6D6",
")#	c #D6D6D6",
"!#	c #CFCFCF",
"~#	c #C2C2C2",
"{#	c #C3C3C3",
"]#	c #CCCCCC",
"^#	c #BDBCBC",
"/#	c #C9C9C8",
"(#	c #B7B7B7",
"_#	c #8D8D8C",
":#	c #272727",
"<#	c #ECEDEC",
"[#	c #E3E3E3",
"}#	c #DFDFDE",
"|#	c #E0E0E1",
"1#	c #C6C6C6",
"2#	c #C5C4C4",
"3#	c #CBCACB",
"4#	c #D1D1D1",
"5#	c #D3D3D3",
"6#	c #AFAFAF",
"7#	c #999999",
"8#	c #E8E7E8",
"9#	c #DFDFDF",
"0#	c #B2B2B2",
"a#	c #C1C0C1",
"b#	c #D5D5D6",
"c#	c #DEDFDF",
"d#	c #F1F1F2",
"e#	c #A1A2A2",
"f#	c #878787",
"g#	c #262626",
"h#	c #989898",
"i#	c #E2E1E2",
"j#	c #CBCBCB",
"k#	c #8E8E8D",
"l#	c #AAABAA",
"m#	c #898A89",
"n#	c #BDBDBD",
"o#	c #B4B4B5",
"p#	c #ACACAC",
"q#	c #9D9C9D",
"r#	c #676767",
"s#	c #858585",
"t#	c #262526",
"u#	c #E3E2E2",
"v#	c #D5D5D5",
"w#	c #DCDCDC",
"x#	c #D6D6D7",
"y#	c #D3D4D4",
"z#	c #CFCECF",
"A#	c #C9C9C9",
"B#	c #B9B8B8",
"C#	c #B4B4B4",
"D#	c #B0B0AF",
"E#	c #B1B0B1",
"F#	c #C3C2C3",
"G#	c #B7B7B8",
"H#	c #848484",
"I#	c #252525",
"J#	c #979797",
"K#	c #FCFCFC",
"L#	c #FEFEFE",
"M#	c #FCFDFC",
"N#	c #FBFBFB",
"O#	c #F7F7F8",
"P#	c #F5F4F5",
"Q#	c #EEEEEE",
"R#	c #E9E9E9",
"S#	c #DBDCDB",
"T#	c #A8A8A8",
"U#	c #E0DFDF",
"V#	c #FAFAFA",
"W#	c #F8F8F9",
"X#	c #F6F6F6",
"Y#	c #DDDCDC",
"Z#	c #D7D7D7",
"`#	c #CDCDCE",
" $	c #C9C9CA",
".$	c #C4C4C4",
"+$	c #868686",
"@$	c #B8B8B8",
"#$	c #959596",
"$$	c #D3D4D3",
"%$	c #B4B3B4",
"&$	c #999A9A",
"*$	c #9B9B9A",
"=$	c #979798",
"-$	c #949494",
";$	c #919191",
">$	c #8C8D8C",
",$	c #818181",
"'$	c #7C7C7D",
")$	c #797979",
"!$	c #747575",
"~$	c #717171",
"{$	c #6C6C6C",
"]$	c #535354",
"^$	c #ABABAB",
"/$	c #888888",
"($	c #828282",
"_$	c #9D9D9D",
":$	c #9B9B9B",
"<$	c #959595",
"[$	c #929291",
"}$	c #90908F",
"|$	c #8D8D8D",
"1$	c #868685",
"2$	c #828182",
"3$	c #808080",
"4$	c #7E7E7E",
"5$	c #7D7D7D",
"6$	c #7C7C7C",
"7$	c #747474",
"8$	c #303030",
"9$	c #2E2E2E",
"0$	c #2D2D2D",
"a$	c #2C2C2C",
"b$	c #2B2B2B",
"c$	c #282828",
"d$	c #111111",
"                                                                ",
"                  . + @ # $ % & * = - ; > , ' ) ! * ~ { ] ^     ",
"                  / ( _ : < [ } | 1 2 3 4 5 6 7 | 8 9 0 a b     ",
"                  c d e f g h i j k l m n o p q r s t u v w     ",
"                  c x y z A B C D E F G H I J K L M N O P Q     ",
"                  c R S T U V W J X m Y Z `  ...+.@.#.$.%.&.    ",
"                  } *.=.-.;.>.,.'.).!.~.{.].^./.(._.:.<.[.}.    ",
"                  |.1.2.3.4.5.6.7.8.G 9.0.a.b.c.d.e.f.g.h.i.    ",
"                j.k.l.m.n.o.p.q.; r.r.s.t.u.v.w.x.y.z.A.B.C.    ",
"  D.c E.# $ % & F.G.H.I.J.J.K.L.M.N.O.P.l.Q.R.S.T.z.3 U.V.W.    ",
"  c X.Y.Z.`.[ }  +.+++@+#+$+%+&+*+=+-+;+z.>+,+'+)+!+~+{+]+^+    ",
"  c /+R <.(+h i _+:+<+[+}+|+1+2+3+4+5+6+m 7+8+9+0+a+b+c+d+e+    ",
"  c x f+`.g+E.h+i+j+k+}+l+m+n+R.o+p+U.q+3 r+s+t+u+v+w+x+y+z+    ",
"  c R S A+B+C+D+E+F+G+H+|+I+J+v.K+L+M+z.N+r+O+P+Q+R+S+j T+U+    ",
"  D.# $ % & V+W+H.I.J.X+Y+Z+`+N.O.P.l. @.@+@@@D+#@$@%@&@*@=@    ",
"  -@;@>@>@>@>@>@>@>@>@>@,@,@,@,@'@'@'@'@'@)@!@~@{@{@]@]@^@/@    ",
"  (@_@:@<@[@<@}@|@1@2@3@4@5@6@7@8@1@9@0@a@b@c@d@e@f@g@h@@ i@    ",
"  j@8@5@|@k@l@m@n@5@o@p@q@5@|@r@l@m@s@t@o@p@c@_@|@u@v@w@x@/@    ",
"  j@y@z@A@B@C@D@E@F@G@H@I@z@A@B@C@D@E@F@G@H@I@z@A@B@J@K@L@M@    ",
"  N@O@P@Q@R@S@T@N@U@V@W@X@P@Q@Y@B@T@N@Z@V@W@`@P@Q@ #.#+#@###    ",
"  $#s@9@%#f@&#g@*#*#E@E@=#-#;#O@>#,#'#)#!#~#{#]#.#^#/#(#_#:#    ",
"  $#<#[#E@}#|#1#l@m@n@5@o@p@c@_@|@u@l@m@s@2#3#>#4#5#u@6#Y@:#    ",
"  7#8#f@9#b@<@(#C@D@E@F@G@H@I@z@A@B@C@D@E@0#a#b#c#b@d#e#f#g#    ",
"  h#i#&#j#B@0#k#B@T@N@l#V@W@`@P@Q@m#B@T@N@{@(#n#o#p#q#r#s#t#    ",
"  h#f@u#f@&#v#9#u@w#E@&#x#y#4#z#j#A#2#S@v@B#C#D#E#F#B@G#H#I#    ",
"  J#b@5@|@r@w#K#L#L#M#N#O#P#<@Q#R#s@f@S#)#g@j#T#~#Q#|@w#H#I#    ",
"  x@U#z@A@B@+#7@V#W#X#A@5@1@b@s@f@Y#Z#5#`# $.$+$@$z@A@B@H#I#    ",
"  #$$$P@Q@Y@%$&$]@(@*$=$-$;$>$ #H#,$'$)$!$~${$]$^$n#Q@/$H#I#    ",
"  ($@ {@(@_$:$$#h#h#x@<$-$[$}$|$R@/$1$H#2$3$4$5$6$6$6$6$7$I#    ",
"  i@8$i@i@i@9$9$0$0$0$a$a$b$b$/@M@c$:#:#g#g#I#I#I#I#I#I#I#d$    ",
"                                                                ",
"                                                                "};
