/* XPM */
static char * port_xpm[] = {
"32 32 187 2",
"  	c None",
". 	c #000000",
"+ 	c #8E8E8E",
"@ 	c #F9F9F9",
"# 	c #EDEDED",
"$ 	c #767676",
"% 	c #808080",
"& 	c #E4E4E4",
"* 	c #D8D8D8",
"= 	c #D1D1D1",
"- 	c #626262",
"; 	c #E0E0E0",
"> 	c #D9D9D9",
", 	c #D8D8D7",
"' 	c #D5D5D5",
") 	c #CACACA",
"! 	c #686868",
"~ 	c #DBDBDB",
"{ 	c #D7D7D6",
"] 	c #D4D4D4",
"^ 	c #C3C3C3",
"/ 	c #565656",
"( 	c #DBDBDA",
"_ 	c #DADADA",
": 	c #DEDEDE",
"< 	c #E2E2E1",
"[ 	c #DCDCDC",
"} 	c #C6C6C6",
"| 	c #B7B7B7",
"1 	c #5B5B5B",
"2 	c #D6D6D6",
"3 	c #9E9E9E",
"4 	c #4C4C4C",
"5 	c #505050",
"6 	c #C0BFBF",
"7 	c #C7C7C7",
"8 	c #C0C0C0",
"9 	c #ADADAD",
"0 	c #464646",
"a 	c #D4D4D3",
"b 	c #9B9B9B",
"c 	c #C2C2C2",
"d 	c #BDBEBD",
"e 	c #B9BAB9",
"f 	c #A1A0A0",
"g 	c #4B4B4C",
"h 	c #272727",
"i 	c #333333",
"j 	c #C1C1C1",
"k 	c #CACAC9",
"l 	c #B6B7B6",
"m 	c #AFAFAF",
"n 	c #99999A",
"o 	c #3C3B3B",
"p 	c #B6B6B6",
"q 	c #949494",
"r 	c #767575",
"s 	c #1E1E1D",
"t 	c #2A2A2A",
"u 	c #353535",
"v 	c #2C2C2C",
"w 	c #2A2B2B",
"x 	c #232323",
"y 	c #090909",
"z 	c #FAFBFB",
"A 	c #D7D7D7",
"B 	c #9C9C9C",
"C 	c #FAFAFA",
"D 	c #EBEBEB",
"E 	c #E8E8E8",
"F 	c #E1E1E1",
"G 	c #D6D7D7",
"H 	c #D2D2D2",
"I 	c #CDCDCD",
"J 	c #C5C5C5",
"K 	c #B6B5B5",
"L 	c #9F9F9E",
"M 	c #6B6B6B",
"N 	c #FDFCFC",
"O 	c #CFCFCF",
"P 	c #424242",
"Q 	c #B0B0B0",
"R 	c #ADACAC",
"S 	c #A9A9A9",
"T 	c #A4A4A4",
"U 	c #A1A1A1",
"V 	c #989898",
"W 	c #939393",
"X 	c #908F90",
"Y 	c #8C8C8B",
"Z 	c #868686",
"` 	c #5E5E5E",
" .	c #E8E9E9",
"..	c #CECECE",
"+.	c #414141",
"@.	c #ACACAC",
"#.	c #A6A6A6",
"$.	c #A1A0A1",
"%.	c #9C9C9D",
"&.	c #989797",
"*.	c #908F8F",
"=.	c #8D8D8D",
"-.	c #898889",
";.	c #848484",
">.	c #828282",
",.	c #7C7C7C",
"'.	c #565555",
").	c #DEDEDD",
"!.	c #CECFCF",
"~.	c #C4C4C4",
"{.	c #818081",
"].	c #797878",
"^.	c #747374",
"/.	c #6F6F6F",
"(.	c #6B6B6A",
"_.	c #686867",
":.	c #636263",
"<.	c #5F5F5F",
"[.	c #5A5A5B",
"}.	c #545454",
"|.	c #242424",
"1.	c #F7F7F7",
"2.	c #D0D0D0",
"3.	c #C2C3C2",
"4.	c #868585",
"5.	c #1F1F1F",
"6.	c #F1F1F1",
"7.	c #7B7B7B",
"8.	c #C9C9C9",
"9.	c #BBBCBB",
"0.	c #B3B3B3",
"a.	c #727272",
"b.	c #1B1B1B",
"c.	c #4A4B4B",
"d.	c #303030",
"e.	c #020202",
"f.	c #8B8B8B",
"g.	c #DFDFDF",
"h.	c #BEBEBE",
"i.	c #B6B6B5",
"j.	c #696A6A",
"k.	c #A3A3A3",
"l.	c #B1B1B1",
"m.	c #A0A0A0",
"n.	c #9A9A9A",
"o.	c #5E5F5E",
"p.	c #080808",
"q.	c #B9B9B9",
"r.	c #ABABAB",
"s.	c #A2A2A2",
"t.	c #626161",
"u.	c #151515",
"v.	c #9E9E9F",
"w.	c #969596",
"x.	c #888888",
"y.	c #7E7F7F",
"z.	c #636363",
"A.	c #898989",
"B.	c #D3D3D3",
"C.	c #AFAEAE",
"D.	c #A7A7A7",
"E.	c #5C5C5C",
"F.	c #9F9FA0",
"G.	c #818282",
"H.	c #CBCBCB",
"I.	c #AAA9AA",
"J.	c #9D9E9D",
"K.	c #939293",
"L.	c #616060",
"M.	c #2C2C2B",
"N.	c #848483",
"O.	c #878787",
"P.	c #969595",
"Q.	c #7A7A7A",
"R.	c #BABABA",
"S.	c #999999",
"T.	c #8B8A8B",
"U.	c #888887",
"V.	c #868685",
"W.	c #B4B4B4",
"X.	c #8F8E8E",
"Y.	c #858585",
"Z.	c #6C6C6C",
"`.	c #1D1D1D",
" +	c #6F6F70",
".+	c #8D8D8E",
"++	c #606060",
"                                                                ",
"                              . .                               ",
"                            + @ # $                             ",
"                          % @ & * = -                           ",
"                        + @ ; > , ' ) !                         ",
"                      % @ & ~ * { ] = ^ /                       ",
"                    + @ ; ( _ : < [ = } | 1                     ",
"                  % @ & ( 2 3 4 5 6 [ 7 8 9 0                   ",
"                + @ ; ~ a b         c : d e f g                 ",
"              % @ & ~ { b h         i j k l m n o               ",
"            + @ ; ~ a b                 p 9 b q r s             ",
"          % @ & ~ { b h                 t u v w x y             ",
"        + @ ; ( a b                                             ",
"      % @ & ( 2 b h             . . . . . . . . . . . . . .     ",
"    + z ; ~ A B               . C D E F [ G H I J c d K L M .   ",
"  . N # > * O P               . D | Q R S T U B V W X Y Z ` .   ",
"  . N  ., ' ..+.              . _ @.#.$.%.&.q *.=.-.;.>.,.'..   ",
"    + @ ).' !.W               . ~.+ Z {.].^./.(._.:.<.[.}.|..   ",
"      % 1.~ 2.3.4.5.            . . . . . . . . . . . . . .     ",
"        + 6.2.} l 7.                                            ",
"          % E 8.9.0.a.b.                i c.+.+.d.e.            ",
"            f.g.h.i.T j.                k.l.m.n.o.p.            ",
"              % * q.r.s.t.u.        v v.w.x.y.z.b.              ",
"                A.B.C.D.W E.        b F.x.G.z.|.                ",
"                  % H.I.J.K.L.w M.N.q x.y.z.b.                  ",
"                    O.7 3 P.*.A.-.Y O.G.z.|.                    ",
"                      Q.R.S.*.T.U.V.y.z.b.                      ",
"                        Q.W.X.x.V.Y.z.|.                        ",
"                          Z.S f.y.z.`.                          ",
"                             +.+++|.                            ",
"                              . .                               ",
"                                                                "};
