/* XPM */
static char * rate_xpm[] = {
"32 32 6 1",
" 	c None",
".	c #808080",
"+	c #000000",
"@	c #808000",
"#	c #FFFFFF",
"$	c #FFFF00",
"                                ",
"                                ",
"                                ",
"                                ",
"                                ",
"                                ",
"                                ",
"                                ",
"         .+          @+         ",
"         .  ########@$$+        ",
"        ...+        $$$+        ",
"        .    ######@$$$$+       ",
"       .+...+      $+$$$+       ",
"       .      ####@$+$$$$+      ",
"      .+  ...+    $+ @$$$+      ",
"      . ##     ##@$+ @$$$$+     ",
"     .+    ...+  $+   @$$$+     ",
"     . ####     @$+   @$$$$+    ",
"    .+      ...+$+     @$$$+    ",
"    .          @$$$$$$$$$$$$+   ",
"   .+++++++++..$++++++++$$$$+   ",
"   . ######## @$+       @$$$$+  ",
"  .+         @$+++      @$$$$+  ",
"..     #### $$$$$$@   @$$$$$$$$+",
"+++++++    ++++++++   ++++++++++",
"                                ",
"                                ",
"                                ",
"                                ",
"                                ",
"                                ",
"                                "};
