/* XPM */
static char * graphics_xpm[] = {
"32 32 332 2",
"  	c None",
". 	c #000000",
"+ 	c #010101",
"@ 	c #030303",
"# 	c #202020",
"$ 	c #595959",
"% 	c #8E8E8E",
"& 	c #717171",
"* 	c #020202",
"= 	c #393939",
"- 	c #AAAAAA",
"; 	c #555555",
"> 	c #1C1C1C",
", 	c #727272",
"' 	c #939393",
") 	c #78787A",
"! 	c #050505",
"~ 	c #3A3A3A",
"{ 	c #191919",
"] 	c #1B1B1B",
"^ 	c #6B6B6D",
"/ 	c #0E0E0E",
"( 	c #87816F",
"_ 	c #F9EDA6",
": 	c #E9C04E",
"< 	c #2D1701",
"[ 	c #505052",
"} 	c #60785C",
"| 	c #7F9F7A",
"1 	c #7C9E77",
"2 	c #7A9E74",
"3 	c #789D72",
"4 	c #759C6F",
"5 	c #739C6D",
"6 	c #709B69",
"7 	c #6D9A67",
"8 	c #6A9A63",
"9 	c #689960",
"0 	c #65985D",
"a 	c #42533F",
"b 	c #B3AC8B",
"c 	c #987B24",
"d 	c #1F351B",
"e 	c #3C6236",
"f 	c #A78C44",
"g 	c #EDC92D",
"h 	c #E2AB0C",
"i 	c #834301",
"j 	c #142B10",
"k 	c #3A842F",
"l 	c #256713",
"m 	c #C2D994",
"n 	c #AACF86",
"o 	c #A9CD85",
"p 	c #A7CC83",
"q 	c #A4CA7F",
"r 	c #A2C87C",
"s 	c #9FC677",
"t 	c #9DC475",
"u 	c #A9C87B",
"v 	c #A6C677",
"w 	c #6F8A52",
"x 	c #AA9669",
"y 	c #F0D15D",
"z 	c #E1AA0D",
"A 	c #0F2D08",
"B 	c #2A8218",
"C 	c #17460C",
"D 	c #8B5502",
"E 	c #15240D",
"F 	c #47632D",
"G 	c #7BA053",
"H 	c #24660A",
"I 	c #AACF87",
"J 	c #68BA5F",
"K 	c #66BD5C",
"L 	c #62B957",
"M 	c #5CB451",
"N 	c #57B14C",
"O 	c #52AC45",
"P 	c #4DA940",
"Q 	c #6AAC50",
"R 	c #65A84A",
"S 	c #368A29",
"T 	c #40491D",
"U 	c #CF7D0C",
"V 	c #CD7803",
"W 	c #302202",
"X 	c #143C0B",
"Y 	c #2B8518",
"Z 	c #2B8617",
"` 	c #4B5936",
" .	c #0E2B06",
"..	c #174A0A",
"+.	c #305726",
"@.	c #2F501A",
"#.	c #23660A",
"$.	c #67BD5D",
"%.	c #85C37E",
"&.	c #81BF79",
"*.	c #7BBA73",
"=.	c #62A15A",
"-.	c #53B446",
";.	c #4FB041",
">.	c #B85838",
",.	c #B65433",
"'.	c #3A894E",
").	c #344CA3",
"!.	c #1C2F18",
"~.	c #081805",
"{.	c #1A294C",
"].	c #246627",
"^.	c #3C9129",
"/.	c #58974A",
"(.	c #839E66",
"_.	c #376F29",
":.	c #287E11",
"<.	c #76946E",
"[.	c #0D2A05",
"}.	c #23650A",
"|.	c #6F9B68",
"1.	c #A8CD83",
"2.	c #62BB59",
"3.	c #AEAEAE",
"4.	c #8B8B8B",
"5.	c #808080",
"6.	c #4D4D4D",
"7.	c #52B245",
"8.	c #4EAE3F",
"9.	c #6EB354",
"0.	c #69AF4E",
"a.	c #3EA02D",
"b.	c #8AB364",
"c.	c #4A963C",
"d.	c #257116",
"e.	c #6D914C",
"f.	c #2D8B19",
"g.	c #58984A",
"h.	c #878787",
"i.	c #646464",
"j.	c #2A2A2A",
"k.	c #7DA450",
"l.	c #97A38A",
"m.	c #0D2905",
"n.	c #236509",
"o.	c #6A9962",
"p.	c #A5CB80",
"q.	c #5EB853",
"r.	c #9F9F9F",
"s.	c #676767",
"t.	c #5B5B5B",
"u.	c #353535",
"v.	c #90B96C",
"w.	c #9DC775",
"x.	c #9BC86F",
"y.	c #98C66C",
"z.	c #96C468",
"A.	c #93C264",
"B.	c #94C266",
"C.	c #91C060",
"D.	c #90BE5F",
"E.	c #8EB763",
"F.	c #7A965B",
"G.	c #252525",
"H.	c #0A0A0A",
"I.	c #5C9E37",
"J.	c #A9B094",
"K.	c #0D2904",
"L.	c #236409",
"M.	c #A3CA7D",
"N.	c #59B54E",
"O.	c #989898",
"P.	c #4F4F4F",
"Q.	c #2E2E2E",
"R.	c #4DAE3E",
"S.	c #49AB39",
"T.	c #44A634",
"U.	c #3FA12E",
"V.	c #3A9C28",
"W.	c #359922",
"X.	c #31951D",
"Y.	c #30931C",
"Z.	c #2F8F1A",
"`.	c #2E8D19",
" +	c #2D811A",
".+	c #236014",
"++	c #1C590C",
"@+	c #1C580C",
"#+	c #5F9756",
"$+	c #BAD18C",
"%+	c #92BA70",
"&+	c #747474",
"*+	c #3E3E3E",
"=+	c #363636",
"-+	c #232323",
";+	c #8DB666",
">+	c #9AC571",
",+	c #98C66B",
"'+	c #ABC27B",
")+	c #91C161",
"!+	c #2F911A",
"~+	c #2E8E19",
"{+	c #2D8B18",
"]+	c #3A8E27",
"^+	c #579448",
"/+	c #549044",
"(+	c #397529",
"_+	c #5B9C36",
":+	c #0C2804",
"<+	c #226409",
"[+	c #5A9651",
"}+	c #9EC676",
"|+	c #50AF44",
"1+	c #4A8D41",
"2+	c #66834C",
"3+	c #3D7E33",
"4+	c #3A7B30",
"5+	c #46A936",
"6+	c #43A632",
"7+	c #58A54B",
"8+	c #9FAD90",
"9+	c #688962",
"0+	c #327F23",
"a+	c #B1CE77",
"b+	c #90BF5F",
"c+	c #8EB663",
"d+	c #88A46A",
"e+	c #5B9B35",
"f+	c #226308",
"g+	c #54944A",
"h+	c #CFA06D",
"i+	c #928744",
"j+	c #67B852",
"k+	c #9CC677",
"l+	c #72BC54",
"m+	c #A8CE77",
"n+	c #98C76C",
"o+	c #95BE6D",
"p+	c #8CAA6F",
"q+	c #2B2B2B",
"r+	c #206212",
"s+	c #60A83D",
"t+	c #5FA63C",
"u+	c #5EA43B",
"v+	c #5D9F3C",
"w+	c #608D49",
"x+	c #7CA24F",
"y+	c #97A289",
"z+	c #0C2703",
"A+	c #4F9244",
"B+	c #CE9E6A",
"C+	c #8E8440",
"D+	c #9AC872",
"E+	c #9BCA6F",
"F+	c #6FB951",
"G+	c #6DB74E",
"H+	c #97C66A",
"I+	c #94BE6C",
"J+	c #718F54",
"K+	c #2F2F2F",
"L+	c #0C0C0C",
"M+	c #206112",
"N+	c #A0C66B",
"O+	c #5FA53C",
"P+	c #5EA33A",
"Q+	c #5C9E3B",
"R+	c #458528",
"S+	c #215D12",
"T+	c #1B550B",
"U+	c #1A540A",
"V+	c #267B0D",
"W+	c #75916D",
"X+	c #49923D",
"Y+	c #96C06A",
"Z+	c #40A533",
"`+	c #98C86C",
" @	c #98C86B",
".@	c #6BB74C",
"+@	c #68B44A",
"@@	c #94C465",
"#@	c #369B23",
"$@	c #59A23A",
"%@	c #58A039",
"&@	c #2F901A",
"*@	c #2C8916",
"=@	c #2B8714",
"-@	c #2A8412",
";@	c #298211",
">@	c #287F0F",
",@	c #277C0E",
"'@	c #25790D",
")@	c #5A884C",
"!@	c #4D6C37",
"~@	c #226207",
"{@	c #428F37",
"]@	c #B3CF7C",
"^@	c #5BB243",
"/@	c #96C768",
"(@	c #68B548",
"_@	c #65B146",
":@	c #92C262",
"<@	c #339A20",
"[@	c #61AA41",
"}@	c #61A840",
"|@	c #B1CE76",
"1@	c #8FBD5E",
"2@	c #8FBC5E",
"3@	c #8FBB5D",
"4@	c #8FBA5D",
"5@	c #8EBA5C",
"6@	c #8EB95C",
"7@	c #8DB85B",
"8@	c #8DB75B",
"9@	c #8BAF5F",
"0@	c #739943",
"a@	c #282828",
"b@	c #143E04",
"c@	c #7A953F",
"d@	c #92A44A",
"e@	c #47631F",
"f@	c #2F5515",
"g@	c #163B05",
"h@	c #515151",
"i@	c #D6D66B",
"j@	c #CAC848",
"k@	c #3F3E0C",
"l@	c #4B4C30",
"m@	c #4C4B4B",
"n@	c #DCDCDD",
"o@	c #C6C6C6",
"p@	c #FFFFFF",
"q@	c #CCCCCC",
"                                                                ",
"                                                                ",
"                                                  . .           ",
"                                              . + @ + #         ",
"                                          . . . $ % & *         ",
"                                          . = - ; > . .         ",
"                                          & , . . . . .         ",
"                                          . . .       .         ",
"                                          +           .         ",
"  # ' ) .                                 !     ~ {   .         ",
"    ] ^ .                               / .   ( _ : < .         ",
"      ^ [ } | 1 2 3 4 5 6 7 8 9 0 a b c . d e f g h i j k l .   ",
"      ^ . 1 m n o p q r s t u v w x y z i A B C D D E F G H .   ",
"      ^ . 3 I J K L M N O P Q R S T U V W X Y Z `  ...+.@.#..   ",
"      ^ . 5 o $.%.&.*.=.-.;.>.,.'.).!.~.{.].^./.(._.:.<.[.}..   ",
"      ^ . |.1.2.3.4.5.6.7.8.9.0.a.b.c.d.e.f.g.h.i.j.k.l.m.n..   ",
"      ^ . o.p.q.r.s.t.u.v.w.x.y.z.A.B.C.D.E.F.6.G.H.I.J.K.L..   ",
"      ^ . 0 M.N.O.t.P.Q.R.S.T.U.V.W.X.Y.Z.`. +.+++@+I.J.K.L..   ",
"      ^ . #+$+%+&+*+=+-+;+>+,+'+A.)+C.!+~+{+]+^+/+(+_+J.:+<+.   ",
"      ^ . [+}+|+1+2+3+4+5+6+7+8+9+0+a+b+D.c+d+h.i.j.e+J.:+f+.   ",
"      ^ . g+h+i+j+k+l+m+n+o+p+& q+r+s+t+u+v+w+6.G.H.x+y+z+f+.   ",
"      ^ . A+B+C+D+E+F+G+H+I+J+K+L+M+N+O+P+Q+R+S+T+U+V+W+z+f+.   ",
"      ^ . X+Y+Z+`+ @.@+@@@#@$@%@Y.&@D.{+*@=@-@;@>@,@'@)@!@~@.   ",
"      ^ . {@]@^@/@/@(@_@:@<@[@}@C.b+|@1@2@3@4@5@6@7@8@9@0@~@.   ",
"      ~ a@b@c@c@d@d@c@c@d@d@e@c@d@f@g@g@g@g@g@g@g@g@g@g@g@g@.   ",
"      h@. . i@i@j@j@i@i@j@j@k@i@j@l@                            ",
"      m@.   . . . . . . . . . . . .                             ",
"                                                                ",
"          n@o@o@% % o@o@% % o@o@% p@.                           ",
"          q@p@p@p@p@p@p@p@p@p@p@p@p@.                           ",
"          . . . . . . . . . . . . .                             ",
"                                                                "};
