/* XPM */
static char * tablet_xpm[] = {
"32 32 545 2",
"  	c None",
". 	c #FAFBFB",
"+ 	c #F7F8F9",
"@ 	c #F4F5F7",
"# 	c #F0F3F5",
"$ 	c #EDF0F2",
"% 	c #EAEDEF",
"& 	c #E6E9EC",
"* 	c #E2E5E9",
"= 	c #DDE2E5",
"- 	c #DADEE2",
"; 	c #D5DADF",
"> 	c #D0D6DB",
", 	c #CBD2D8",
"' 	c #C7CED5",
") 	c #C2C9D1",
"! 	c #BDC5CD",
"~ 	c #B9C1C9",
"{ 	c #B3BDC6",
"] 	c #AEB9C2",
"^ 	c #AAB5BE",
"/ 	c #A6B0BA",
"( 	c #A1ACB7",
"_ 	c #F4F7F7",
": 	c #F2F4F5",
"< 	c #F0F2F4",
"[ 	c #EEF0F2",
"} 	c #EBEEF0",
"| 	c #E8EBED",
"1 	c #E3E6E9",
"2 	c #DFE4E7",
"3 	c #C8CFD4",
"4 	c #D7DDE1",
"5 	c #CFD5DA",
"6 	c #CCD3D8",
"7 	c #C9D0D5",
"8 	c #C5CDD3",
"9 	c #C3CAD1",
"0 	c #BFC7CF",
"a 	c #BCC5CC",
"b 	c #B9C2CA",
"c 	c #B6BFC8",
"d 	c #98A5B1",
"e 	c #FFFFFF",
"f 	c #F5F6F7",
"g 	c #F2F5F5",
"h 	c #F0F2F3",
"i 	c #EDEFF1",
"j 	c #EBEDEF",
"k 	c #E5E9EB",
"l 	c #E2E6E9",
"m 	c #DFE3E7",
"n 	c #DCE0E4",
"o 	c #F7B800",
"p 	c #C3C9D0",
"q 	c #B7C2CD",
"r 	c #77A1CD",
"s 	c #8FA5BD",
"t 	c #B0B8C0",
"u 	c #B0B9C2",
"v 	c #B0B9C1",
"w 	c #909DAA",
"x 	c #EFF2F3",
"y 	c #EEF0F1",
"z 	c #EBEEEF",
"A 	c #E8EAED",
"B 	c #E5E8EB",
"C 	c #E2E5E8",
"D 	c #DFE3E6",
"E 	c #DBE0E4",
"F 	c #D9DDE2",
"G 	c #C8CFD5",
"H 	c #C5CCD2",
"I 	c #C1C9D0",
"J 	c #D1DBE7",
"K 	c #A4B6CA",
"L 	c #4D6F93",
"M 	c #617388",
"N 	c #9DA5AD",
"O 	c #A5AEB7",
"P 	c #ABB3BD",
"Q 	c #8D9AA7",
"R 	c #E7EBEC",
"S 	c #E4E8EB",
"T 	c #E1E6E8",
"U 	c #DEE3E6",
"V 	c #DCE0E3",
"W 	c #D5DADE",
"X 	c #DCE2E5",
"Y 	c #DBDFE3",
"Z 	c #C1C8CF",
"` 	c #D3DCE7",
" .	c #F0FBFF",
"..	c #C4D2E1",
"+.	c #687281",
"@.	c #737B81",
"#.	c #858E94",
"$.	c #98A1AA",
"%.	c #A4AEB6",
"&.	c #8897A5",
"*.	c #939393",
"=.	c #EDF0F1",
"-.	c #BCC4CC",
";.	c #BBC3CB",
">.	c #B9C1CA",
",.	c #B7C0C9",
"'.	c #B5BEC7",
").	c #B3BCC5",
"!.	c #B1BAC4",
"~.	c #AEB8C2",
"{.	c #ACB6BF",
"].	c #A9B4BE",
"^.	c #A6B1BB",
"/.	c #A4AFBA",
"(.	c #A2ACB7",
"_.	c #9EAAB5",
":.	c #C9D2DD",
"<.	c #F1FCFF",
"[.	c #C8D6E5",
"}.	c #5B636E",
"|.	c #3C4249",
"1.	c #515960",
"2.	c #616B74",
"3.	c #76828E",
"4.	c #9FAAB4",
"5.	c #8593A1",
"6.	c #666666",
"7.	c #A5A5A5",
"8.	c #EAECEE",
"9.	c #BBC3CC",
"0.	c #BAC2CA",
"a.	c #B8C0C9",
"b.	c #B2BBC4",
"c.	c #AFB9C2",
"d.	c #ACB6C0",
"e.	c #AAB4BE",
"f.	c #A7B2BC",
"g.	c #A5AFBA",
"h.	c #A2AEB8",
"i.	c #CDD5DF",
"j.	c #F1FAFF",
"k.	c #C8D6E4",
"l.	c #59606B",
"m.	c #262B31",
"n.	c #41474D",
"o.	c #4D565D",
"p.	c #646E79",
"q.	c #788492",
"r.	c #9EA9B4",
"s.	c #81909E",
"t.	c #545454",
"u.	c #9C9C9C",
"v.	c #E7EAED",
"w.	c #BAC3CA",
"x.	c #E1E5E8",
"y.	c #DEE3E5",
"z.	c #D4D9DE",
"A.	c #D1D7DC",
"B.	c #CED4D9",
"C.	c #CAD1D7",
"D.	c #C7CED4",
"E.	c #C4CCD2",
"F.	c #C1C8D0",
"G.	c #DDE3E9",
"H.	c #F1FBFF",
"I.	c #C9D6E6",
"J.	c #616773",
"K.	c #2D3136",
"L.	c #484C50",
"M.	c #53585D",
"N.	c #6B7278",
"O.	c #879097",
"P.	c #7D8B98",
"Q.	c #9DA8B3",
"R.	c #7D8C9C",
"S.	c #E3E7EA",
"T.	c #B9C2C9",
"U.	c #DEE2E5",
"V.	c #DADFE3",
"W.	c #D7DCE0",
"X.	c #D3DADE",
"Y.	c #CDD4D9",
"Z.	c #CAD1D6",
"`.	c #C4CBD2",
" +	c #C0C9D0",
".+	c #DAE2E9",
"++	c #C8D5E5",
"@+	c #676E79",
"#+	c #31353A",
"$+	c #464A4E",
"%+	c #505559",
"&+	c #666D73",
"*+	c #818990",
"=+	c #939EA7",
"-+	c #9BA7B2",
";+	c #788898",
">+	c #E1E4E7",
",+	c #B7C1C9",
"'+	c #D3D9DE",
")+	c #CDD3D9",
"!+	c #CAD0D6",
"~+	c #C7CDD3",
"{+	c #C3CBD1",
"]+	c #BFC7CE",
"^+	c #D8DFE8",
"/+	c #F0FAFF",
"(+	c #6C737E",
"_+	c #303439",
":+	c #474B4F",
"<+	c #656C72",
"[+	c #7E878E",
"}+	c #919BA5",
"|+	c #99A5B0",
"1+	c #82919F",
"2+	c #98A4B0",
"3+	c #748495",
"4+	c #DCE1E5",
"5+	c #D6DCE0",
"6+	c #D4D9DD",
"7+	c #C9D0D6",
"8+	c #C6CED4",
"9+	c #C0C8CE",
"0+	c #D3DCE6",
"a+	c #C7D5E4",
"b+	c #6E747F",
"c+	c #32363C",
"d+	c #4F5458",
"e+	c #656B72",
"f+	c #909AA4",
"g+	c #98A4AF",
"h+	c #9AA7B1",
"i+	c #81919E",
"j+	c #95A2AD",
"k+	c #708191",
"l+	c #D9DEE3",
"m+	c #B5BDC7",
"n+	c #D3D9DD",
"o+	c #CDD3D8",
"p+	c #C6CDD4",
"q+	c #BEC7CD",
"r+	c #D4DDE8",
"s+	c #F0F9FF",
"t+	c #31353B",
"u+	c #656B71",
"v+	c #7E868E",
"w+	c #909AA3",
"x+	c #99A5AF",
"y+	c #9AA6B1",
"z+	c #7F8E9D",
"A+	c #919FAB",
"B+	c #6C7D8E",
"C+	c #D6DBE0",
"D+	c #BDC6CD",
"E+	c #A1BAD3",
"F+	c #E3EFFA",
"G+	c #CBD8E5",
"H+	c #32363B",
"I+	c #646B71",
"J+	c #7D858E",
"K+	c #8F9AA3",
"L+	c #97A3AF",
"M+	c #99A5B1",
"N+	c #97A3B0",
"O+	c #94A1AD",
"P+	c #7D8E9C",
"Q+	c #8D9CA8",
"R+	c #677A8A",
"S+	c #D2D8DD",
"T+	c #C9CFD5",
"U+	c #C2CAD1",
"V+	c #91ADC8",
"W+	c #597DA2",
"X+	c #ABBBCE",
"Y+	c #646973",
"Z+	c #4F5358",
"`+	c #7D858D",
" @	c #8E99A3",
".@	c #98A3AE",
"+@	c #96A3AF",
"@@	c #94A0AD",
"#@	c #7C8B9B",
"$@	c #8A98A5",
"%@	c #637588",
"&@	c #FBFFFF",
"*@	c #B0B9C3",
"=@	c #C2CAD0",
"-@	c #BEC6CD",
";@	c #8DABC9",
">@	c #58718D",
",@	c #8A94A2",
"'@	c #575C66",
")@	c #2C3035",
"!@	c #4F5459",
"~@	c #7D868D",
"{@	c #8E99A2",
"]@	c #97A3AE",
"^@	c #98A5B0",
"/@	c #93A1AC",
"(@	c #909EAA",
"_@	c #8D9BA8",
":@	c #7A8B99",
"<@	c #8796A4",
"[@	c #5E7285",
"}@	c #F3FFFF",
"|@	c #CCD2D8",
"1@	c #AEB8C1",
"2@	c #C5CCD3",
"3@	c #C2C9D0",
"4@	c #BEC7CE",
"5@	c #A8BBCF",
"6@	c #4D6888",
"7@	c #8A919E",
"8@	c #5C626A",
"9@	c #2E3237",
"0@	c #464A4D",
"a@	c #8F99A3",
"b@	c #93A1AD",
"c@	c #798999",
"d@	c #8393A1",
"e@	c #5A6E81",
"f@	c #556A7D",
"g@	c #F5FFFF",
"h@	c #C8CED4",
"i@	c #BEC5CC",
"j@	c #E4E7EA",
"k@	c #C6D5E1",
"l@	c #8994A3",
"m@	c #585D66",
"n@	c #2C3136",
"o@	c #4E5357",
"p@	c #646B70",
"q@	c #7C848D",
"r@	c #8E98A2",
"s@	c #98A4AD",
"t@	c #95A3AE",
"u@	c #92A0AC",
"v@	c #8F9DAA",
"w@	c #8795A3",
"x@	c #788798",
"y@	c #81909F",
"z@	c #7E8E9D",
"A@	c #52667A",
"B@	c #EDF9FF",
"C@	c #C7CFD4",
"D@	c #E4E7EB",
"E@	c #F9FFFF",
"F@	c #C8D4DF",
"G@	c #5C636D",
"H@	c #2E3137",
"I@	c #636A70",
"J@	c #7C848C",
"K@	c #96A2AD",
"L@	c #96A3AE",
"M@	c #8C9BA8",
"N@	c #8997A4",
"O@	c #8392A1",
"P@	c #768796",
"Q@	c #7E8D9C",
"R@	c #7C8C9A",
"S@	c #798A99",
"T@	c #485F73",
"U@	c #EBF9FF",
"V@	c #A8B2BC",
"W@	c #F8FFFF",
"X@	c #BCCBD7",
"Y@	c #4D5460",
"Z@	c #2F343A",
"`@	c #45494D",
" #	c #7B848C",
".#	c #8E98A1",
"+#	c #95A2AF",
"@#	c #929FAC",
"##	c #8C9AA7",
"$#	c #8695A2",
"%#	c #80909E",
"&#	c #758595",
"*#	c #7C8B9A",
"=#	c #798998",
"-#	c #778798",
";#	c #445A70",
">#	c #E2F1FF",
",#	c #C0C8CF",
"'#	c #BDC5CC",
")#	c #ABB6C2",
"!#	c #DAE6F1",
"~#	c #B8C5D1",
"{#	c #464D59",
"]#	c #292D34",
"^#	c #95A2AE",
"/#	c #8F9CA9",
"(#	c #8B9AA6",
"_#	c #8695A3",
":#	c #8392A0",
"<#	c #7D8D9C",
"[#	c #778797",
"}#	c #768695",
"|#	c #41576D",
"1#	c #8A8A8A",
"2#	c #DCE8F7",
"3#	c #B1BCC8",
"4#	c #B1BFD0",
"5#	c #6C7482",
"6#	c #30363D",
"7#	c #3F4449",
"8#	c #474D52",
"9#	c #5B6269",
"0#	c #707A84",
"a#	c #818D98",
"b#	c #8996A2",
"c#	c #8A98A6",
"d#	c #8694A3",
"e#	c #7C8C9B",
"f#	c #7A8A9A",
"g#	c #788897",
"h#	c #748595",
"i#	c #738494",
"j#	c #778897",
"k#	c #758696",
"l#	c #748494",
"m#	c #3C546B",
"n#	c #D2E2F1",
"o#	c #BAC2CB",
"p#	c #B4BDC5",
"q#	c #C3CAD0",
"r#	c #8B949F",
"s#	c #63696F",
"t#	c #51565B",
"u#	c #52575B",
"v#	c #7B848D",
"w#	c #8D97A1",
"x#	c #97A4AF",
"y#	c #919EAB",
"z#	c #8E9CA8",
"A#	c #8B99A6",
"B#	c #8594A1",
"C#	c #8292A0",
"D#	c #7B8B9A",
"E#	c #758695",
"F#	c #738595",
"G#	c #395168",
"H#	c #C7D8EB",
"I#	c #BAC3C9",
"J#	c #B7C0C8",
"K#	c #9FA7B0",
"L#	c #848C93",
"M#	c #62696E",
"N#	c #6B7178",
"O#	c #7D868E",
"P#	c #8D98A2",
"Q#	c #96A0AD",
"R#	c #919EAA",
"S#	c #8D9BA9",
"T#	c #8896A4",
"U#	c #8594A2",
"V#	c #8291A0",
"W#	c #7F8F9D",
"X#	c #7D8D9B",
"Y#	c #768797",
"Z#	c #354E65",
"`#	c #BFD2E2",
" $	c #BBC4CC",
".$	c #ADB6BF",
"+$	c #A0AAB2",
"@$	c #8E969E",
"#$	c #7F878F",
"$$	c #858E97",
"%$	c #909AA5",
"&$	c #95A2AC",
"*$	c #8E9BA8",
"=$	c #8A99A6",
"-$	c #8897A3",
";$	c #8493A2",
">$	c #808F9D",
",$	c #7B8B99",
"'$	c #788998",
")$	c #748695",
"!$	c #4F6579",
"~$	c #324A63",
"{$	c #B4BDC6",
"]$	c #ACB6BE",
"^$	c #A3AEB7",
"/$	c #9AA4AD",
"($	c #949EA8",
"_$	c #929CA6",
":$	c #94A0AA",
"<$	c #8A99A5",
"[$	c #8494A1",
"}$	c #7F8F9E",
"|$	c #7C8C9C",
"1$	c #7A8A99",
"2$	c #748696",
"3$	c #4F657A",
"4$	c #324B63",
"5$	c #303030",
"6$	c #B1C1CF",
"7$	c #ABB5BE",
"8$	c #A1ABB5",
"9$	c #9DA9B3",
"0$	c #9BA6B1",
"a$	c #93A0AC",
"b$	c #8796A3",
"c$	c #81919F",
"d$	c #53687C",
"e$	c #50657A",
"f$	c #324B64",
"g$	c #393939",
"h$	c #A4B0BA",
"i$	c #A0ACB7",
"j$	c #9DA9B5",
"k$	c #96A4AF",
"l$	c #8D9AA8",
"m$	c #8493A1",
"n$	c #82909F",
"o$	c #576C80",
"p$	c #54697C",
"q$	c #334B64",
"r$	c #5D5D5D",
"s$	c #9DA9B4",
"t$	c #9AA6B2",
"u$	c #96A2AF",
"v$	c #708292",
"w$	c #6C7E8F",
"x$	c #687A8B",
"y$	c #647689",
"z$	c #5F7385",
"A$	c #5C7083",
"B$	c #586D7F",
"C$	c #54697D",
"D$	c #50667A",
"E$	c #344C64",
"F$	c #8694A2",
"G$	c #738495",
"H$	c #6F8091",
"I$	c #6A7C8D",
"J$	c #65788A",
"K$	c #607485",
"L$	c #5C6F82",
"M$	c #576B7F",
"N$	c #52677A",
"O$	c #4D6377",
"P$	c #495F74",
"Q$	c #445B71",
"R$	c #40576D",
"S$	c #3C536A",
"T$	c #375066",
"                                                                ",
"          . + @ # $ % & * = - ; > , ' ) ! ~ { ] ^ / (           ",
"        . _ : < [ } | & 1 2 3 3 3 4 5 6 7 8 9 0 a b c d         ",
"      e f g h i j | k l m n 3 o o 4 , 7 8 p q r s t u v w       ",
"      e : x y z A B C D E F 3 o o 4 G H I J K L M N O P Q       ",
"      e x i j R S T U V F W 2 X Y 4 H Z `  ...+.@.#.$.%.&.*.    ",
"      e =.-.;.>.,.'.).!.~.{.].^./.(._.:.<.[.}.|.1.2.3.4.5.6.7.  ",
"      e 8.9.0.a.c { b.c.d.e.f.g.h._.i.j.k.l.m.n.o.p.q.r.s.t.u.  ",
"      e v.w.x.y.Y 4 z.A.B.C.D.E.F.G.H.I.J.K.L.M.N.O.P.Q.R.t.u.  ",
"      e S.T.U.V.W.X.A.Y.Z.D.`. +.+H.++@+#+$+%+&+*+=+s.-+;+t.u.  ",
"      e >+,+V.W.'+> )+!+~+{+]+^+/+++(+_+:+%+<+[+}+|+1+2+3+t.u.  ",
"      e 4+c 5+6+> )+7+8+{+9+0+H.a+b+c+$+d+e+[+f+g+h+i+j+k+t.u.  ",
"      e l+m+n+> o+7+p+9 q+r+s+a+(+t+$+d+u+v+w+x+y+2+z+A+B+t.u.  ",
"      e C+).> 6 7+8 9 D+E+F+G+b+H+:+d+I+J+K+L+M+N+O+P+Q+R+t.u.  ",
"      e S+b.6 T+H U+! V+W+X+Y+t+$+Z+I+`+ @.@M++@@@w #@$@%@t.u.  ",
"      &@5 *@G 8 =@-@;@>@,@'@)@:+!@u+~@{@]@^@N+/@(@_@:@<@[@t.u.  ",
"    &@}@|@1@2@3@4@5@6@7@8@9@0@Z+I+`+a@]@^@+@b@w Q $@c@d@e@f@u.  ",
"    g@C.h@{.I i@j@k@l@m@n@0@o@p@q@r@s@2+t@u@v@_@$@w@x@y@z@A@u.  ",
"  g@B@C@`.e.]+D@E@F@G@H@$+o@I@J@r@K@g+L@u@v@M@N@w@O@P@Q@R@S@T@  ",
"  U@C@E.Z V@m W@X@Y@Z@`@d+I@ #.#K@2++#@#v@##N@$#d@%#&#*#=#-#;#7.",
"  >#`.,#'#)#!#~#{#]#$+d+p@q@.#K@N+^#@#/#(#N@_#:#s.<#3+c@[#}#|#1#",
"  2#,#'#T.3#4#5#6#7#8#9#0#a#b#c#N@d#d@%#z+e#f#g#P@h#i#j#k#l#m#6.",
"  n#! o#p#q#r#s#t#u#I+v#w#K@x#O+y#z#A#N@B#C#%#<#D#c@P@E#F#i#G#t.",
"  H#I#J#v K#L#N.M#N#O#P#Q#L+O+R#S#A#T#U#V#W#X#:@=#Y#&#l#i#i#Z#t.",
"  `# $p#.$+$@$#$O#$$%$&$L@O+(@*$=$-$;$V#>$X#,$'$Y#)$i#i#i#!$~$t.",
"  u.`#{$]$^$/$($_$:$K@L@b@(@_@<$<@[$1+}$|$1$;+P@2$i#i#i#3$4$5$t.",
"  u.t.6$7$/ 8$9$0$M+x#a$(@_@c#b$;$c$z+|$f#'$P@h#i#i#d$e$f$5$5$t.",
"  7.6.g$-+h$i$j$y+k$b@w l$$@w@m$n$z@e#1$;+P@h#i#o$p$e$q$5$5$g$6.",
"    *.r$g$u@s$t$u$@#S#$@U#y@|$c@h#v$w$x$y$z$A$B$C$D$E$5$5$g$r$*.",
"      *.r$g$=$F$y@X#;+G$H$I$J$K$L$M$N$O$P$Q$R$S$T$E$5$5$g$r$*.  ",
"        *.r$g$5$5$5$5$5$5$5$5$5$5$5$5$5$5$5$5$5$5$5$5$g$r$*.    ",
"          *.r$g$5$5$5$5$5$5$5$5$5$5$5$5$5$5$5$5$5$5$g$r$*.      "};

