/* XPM */
static char * delay2_xpm[] = {
"32 32 8 1",
" 	c None",
".	c #808080",
"+	c #000000",
"@	c #FFFFFF",
"#	c #800000",
"$	c #FF0000",
"%	c #0000FF",
"&	c #000080",
"                                ",
"        ......+                 ",
"        .@+@+@+                 ",
"         +++++                  ",
"   .+     +.+     ..            ",
"  .@+   #######   .@+           ",
" .@ ++##$$$$$$$##++ @+          ",
" +++.#$$$#####$$$#.+++          ",
"   +#$$##+++++##$$++            ",
"   #$$#++ @@@ ++#$#+            ",
"   #$#+.@@@%@@@.#$$+            ",
"  #$$#+@@@@%@@@@#$$#+           ",
"  #$#+ @@@@%@@@@ #$#+           ",
"  #$#+@@@@@%@@@@@#$#+           ",
"  #$#+@@@@@%@@@@@#$#+           ",
"  #$#+@@@@@%@@@@@#$#+&+         ",
"  #$#+ @@@@@@@@@ #$#+&&+        ",
"  #$$#+@@@@@@@@@#$$#&&&+        ",
"   #$#+.@@@@@@@.#$#+&&&&+       ",
"   #$$$## @@@ ##$$#&.&&&+       ",
"    #$$$$#####$$$#+&.&&&&+      ",
"     +#$$$$$$$$##+&. .&&&+      ",
"      ++#######++.&. .&&&&+     ",
"        +++++++ .&.   .&&&+     ",
"                .&.   .&&&&+    ",
"               .&.     .&&&+    ",
"               .&&&&&&&&&&&&+   ",
"              .&.+++++++&&&&+   ",
"              .&.       .&&&&+  ",
"             .&.        .&&&&+  ",
"           .&&&&&&+   .&&&&&&&&+",
"           .+++++++   .+++++++++"};
