/* XPM */
static char * geo_xpm[] = {
"32 32 54 1",
" 	c None",
".	c #1F1F1F",
"+	c #282828",
"@	c #4A4A4A",
"#	c #BBBBBB",
"$	c #5B5B5B",
"%	c #1D1D1D",
"&	c #2C2C2C",
"*	c #7D7D7D",
"=	c #D7D7D7",
"-	c #C1C1C1",
";	c #6C6C6C",
">	c #393939",
",	c #939393",
"'	c #888888",
")	c #D2D2D2",
"!	c #635B38",
"~	c #7A754C",
"{	c #968D5D",
"]	c #867C48",
"^	c #544F28",
"/	c #6C6747",
"(	c #C0BFBB",
"_	c #8C8868",
":	c #DDD6BB",
"<	c #E9E4D0",
"[	c #BDB284",
"}	c #8F8348",
"|	c #777356",
"1	c #B1B1AE",
"2	c #353427",
"3	c #9B8E55",
"4	c #625B2B",
"5	c #2C2B22",
"6	c #4F4F4F",
"7	c #A59C7A",
"8	c #A2955C",
"9	c #9E915A",
"0	c #111111",
"a	c #9D9B91",
"b	c #8F8248",
"c	c #908348",
"d	c #878062",
"e	c #A4A4A4",
"f	c #3A3A3A",
"g	c #504B26",
"h	c #554F24",
"i	c #484523",
"j	c #222222",
"k	c #717171",
"l	c #000000",
"m	c #666666",
"n	c #444444",
"o	c #141414",
"                                ",
"                                ",
"                                ",
"                                ",
"                                ",
"                                ",
"                                ",
"                                ",
"  .+                            ",
"  @#$%                          ",
"  &*=-;+                >,'     ",
"    >,)#$%            &*=-$     ",
"      &*=-;+        >,)#$%      ",
"        >,)#$!~{]^/*=-;+        ",
"          &*(_:<[}|1$%          ",
"            2{<<[345            ",
"            67[[89;0            ",
"          &*=ab3cd)e$f          ",
"        >,)#$%g4hi&*=-;+        ",
"      &*=-;+        >,)#$%      ",
"    jk)#$%            &*=-;+    ",
"   lmk;+                >,)en%  ",
"    n%                    &6mj  ",
"                            jo  ",
"                                ",
"                                ",
"                                ",
"                                ",
"                                ",
"                                ",
"                                ",
"                                "};
