/* XPM */
static char *pen[] = {
/* width height num_colors chars_per_pixel */
"    32    32       57            1",
/* colors */
". c None",
"# c #e7eeee",
"a c #e1eeee",
"b c #cfdee7",
"c c #7ca0c4",
"d c #ffffff",
"e c #f7ffff",
"f c #f1ffff",
"g c #f0f3fb",
"h c #e6f5ff",
"i c #edf2f9",
"j c #e3f2fd",
"k c #e6edf8",
"l c #deeef8",
"m c #dee8f6",
"n c #dae8f2",
"o c #d5e2f5",
"p c #d1dff3",
"q c #c6d4e7",
"r c #c1cedf",
"s c #bdc9da",
"t c #bac6d5",
"u c #b7c4d6",
"v c #b5bdd6",
"w c #afbccd",
"x c #b1bcce",
"y c #a7b3c4",
"z c #9facbc",
"A c #9faab8",
"B c #86afda",
"C c #85abd2",
"D c #98a4b4",
"E c #8893a0",
"F c #6595c7",
"G c #748da9",
"H c #7d8592",
"I c #618ab5",
"J c #76808e",
"K c #626b78",
"L c #5b687a",
"M c #436c97",
"N c #4f6884",
"O c #565c6a",
"P c #365b81",
"Q c #50535a",
"R c #4b4f56",
"S c #484c52",
"T c #45494f",
"U c #42464d",
"V c #3d4653",
"W c #3c4047",
"X c #323640",
"Y c #2e3137",
"Z c #2b2e35",
"0 c #272b32",
"1 c #24292f",
"2 c #1e2129",
/* pixels */
".............................BB.",
"............................IFIG",
"..........................opLINK",
".........................oehvVV.",
"........................nehrAy..",
".......................mejrA12..",
"......................kehrA12...",
".....................kejrA02....",
"....................iehrAZ2.....",
"...................iejrAU2......",
"..................iejrAT2.......",
".................kejrAS2........",
"................mejrAR2.........",
"...............mdjrAQ2..........",
"..............ndlrAQ2...........",
".............odbrAQ2............",
"............pgbrAQ2.............",
"...........CIbrAQ2..............",
"..........CIPrAY2...............",
".........cIXsHY2................",
"........cIXsHY2.................",
".......CIXtHY2..................",
"......dMXvHY2...................",
".....dgaxHY2....................",
"....dg#rEY2.....................",
"...dgarJW2......................",
"..dgfrJW2.......................",
"..kfrJ22........................",
".pnyJ22.........................",
".qwDO2..........................",
".uzO............................",
"d..............................."
};

