/* XPM */
static char * eraser_xpm[] = {
"32 32 145 2",
"  	c None",
". 	c #C0C0FF",
"+ 	c #3C3CA8",
"@ 	c #000050",
"# 	c #000000",
"$ 	c #B4B4FF",
"% 	c #4949B8",
"& 	c #0F0F68",
"* 	c #000018",
"= 	c #ADADFF",
"- 	c #8888FF",
"; 	c #7878F4",
"> 	c #4646BF",
", 	c #00006A",
"' 	c #00001F",
") 	c #A5A5FF",
"! 	c #9393FF",
"~ 	c #8080FF",
"{ 	c #6B6BEA",
"] 	c #4444BF",
"^ 	c #121268",
"/ 	c #000032",
"( 	c #B0B0FF",
"_ 	c #9292FF",
": 	c #7A7AF9",
"< 	c #3838B8",
"[ 	c #8282FF",
"} 	c #7070EF",
"| 	c #181898",
"1 	c #A6A6FF",
"2 	c #9090FF",
"3 	c #5A5AD9",
"4 	c #232398",
"5 	c #080840",
"6 	c #AAAAFF",
"7 	c #9494FF",
"8 	c #7D7DFC",
"9 	c #5C5CDB",
"0 	c #2D2D98",
"a 	c #000049",
"b 	c #000016",
"c 	c #8B8BFF",
"d 	c #1E1E98",
"e 	c #000045",
"f 	c #A8A8FF",
"g 	c #8E8EFF",
"h 	c #8383FF",
"i 	c #00001B",
"j 	c #E0D8F7",
"k 	c #CCCCFF",
"l 	c #B1B1FF",
"m 	c #8A8AFF",
"n 	c #F7ABAB",
"o 	c #F7D1D1",
"p 	c #FBEDED",
"q 	c #F1F1FF",
"r 	c #7B7BFA",
"s 	c #FFC0C0",
"t 	c #E97E7E",
"u 	c #CC2525",
"v 	c #CC2D2D",
"w 	c #E28A8A",
"x 	c #FCFCFF",
"y 	c #ECECFF",
"z 	c #6060DF",
"A 	c #E57272",
"B 	c #D43C3C",
"C 	c #C00000",
"D 	c #CE3838",
"E 	c #E38F8F",
"F 	c #F9E7E7",
"G 	c #DFDFFF",
"H 	c #5858D7",
"I 	c #2C2C98",
"J 	c #000040",
"K 	c #00001E",
"L 	c #F39C9C",
"M 	c #D03131",
"N 	c #C61A1A",
"O 	c #EAA8A8",
"P 	c #6A6AE9",
"Q 	c #272798",
"R 	c #00004C",
"S 	c #EC8787",
"T 	c #C81818",
"U 	c #C20808",
"V 	c #C10404",
"W 	c #6464E3",
"X 	c #171797",
"Y 	c #060640",
"Z 	c #00000F",
"` 	c #E56F6F",
" .	c #D33A3A",
"..	c #8F8FD7",
"+.	c #2A2A98",
"@.	c #040440",
"#.	c #000020",
"$.	c #F09191",
"%.	c #D23636",
"&.	c #C62424",
"*.	c #DBA7A7",
"=.	c #62548A",
"-.	c #00004D",
";.	c #000008",
">.	c #C71717",
",.	c #B50303",
"'.	c #8F0E0E",
").	c #3B070B",
"!.	c #AC0000",
"~.	c #840000",
"{.	c #3D0000",
"].	c #200000",
"^.	c #E77676",
"/.	c #CF2D2D",
"(.	c #BE0000",
"_.	c #B00000",
":.	c #820000",
"<.	c #4C0000",
"[.	c #0F0000",
"}.	c #EF9090",
"|.	c #C40C0C",
"1.	c #B80000",
"2.	c #8C0000",
"3.	c #400000",
"4.	c #FAB1B1",
"5.	c #ED8888",
"6.	c #D03232",
"7.	c #AD0000",
"8.	c #860000",
"9.	c #3C0000",
"0.	c #1E0000",
"a.	c #E67575",
"b.	c #AE0000",
"c.	c #490000",
"d.	c #160000",
"e.	c #890000",
"f.	c #450000",
"g.	c #1B0000",
"h.	c #C03C3C",
"i.	c #FAB8B8",
"j.	c #EFA8A8",
"k.	c #983434",
"l.	c #DF8F8F",
"m.	c #982424",
"n.	c #400B0B",
"                                                . + @ #         ",
"                                                $ % & *         ",
"                                            . = - ; > , '       ",
"                                          . ) ! ~ ~ { ] ^ /     ",
"                                          ( _ ~ ~ ~ ~ : < ^ '   ",
"                                      . ( - [ ~ ~ ~ ~ ~ : ] , * ",
"                                    . ) _ [ ~ ~ ~ ~ ~ ~ ~ { > & ",
"                                    = ! ~ ~ ~ ~ ~ ~ ~ ~ ~ ~ } | ",
"                                . $ - ~ ~ ~ ~ ~ ~ ~ ~ ~ ~ ~ } | ",
"                              . 1 2 [ ~ ~ ~ ~ ~ ~ ~ ~ ~ ~ 3 4 5 ",
"                              6 7 ~ ~ ~ ~ ~ ~ ~ ~ ~ ~ 8 9 0 a b ",
"                            $ c ~ ~ ~ ~ ~ ~ ~ ~ ~ ~ 8 } d e #   ",
"                        . f g h ~ ~ ~ ~ ~ ~ ~ ~ ~ ~ 9 d 5 i     ",
"                        j k l m ~ ~ ~ ~ ~ ~ ~ ~ ~ 3 0 e i       ",
"                      n o p q ) - ~ ~ ~ ~ ~ ~ r } 4 a #         ",
"                  s t u v w x y $ ~ ~ ~ ~ ~ ~ z | 5 b           ",
"                s A B C C D E F G $ - ~ ~ ~ H I J K             ",
"                L M C C C C N O F y ) m : P Q R #               ",
"            s S T U C C C C V N E x q l W X Y Z                 ",
"          s `  .C C C C C C C C D w p ..+.@.#.                  ",
"          $.%.C C C C C C C C C C &.*.=.-.;.                    ",
"      s $.>.V C C C C C C C C C C ,.'.).;.                      ",
"    s ` %.V C C C C C C C C C C !.~.{.].                        ",
"    s ^./.V C C C C C C C C (._.:.<.[.                          ",
"s s s s }.|.C C C C C C C C 1.2.3.#                             ",
"s s s s 4.5.6.C C C C C C 7.8.9.0.                              ",
"s s s s s s a.6.C C C (.b.:.c.d.                                ",
"    s s s s s 5.|.V (.1.e.f.#                                   ",
"      s s s s 4.}./.b.e.9.g.                                    ",
"        s s s s s h.:.f.g.                                      ",
"          s s i.j.k.c.#                                         ",
"            s l.m.n.d.                                          "};
